# xmcd CD database file
#
# Track frame offsets:
#	150
#	19712
#	38387
#	60450
#	81200
#	105280
#	126925
#	131000
#	151115
#	172132
#
# Disc length: 2653 seconds
#
# Revision: 0
# Processed by: cddbd v1.5.1PL0 Copyright (c) Steve Scherf et al.
# Submitted via: CDex 1.51
#
DISCID=710a5b0a
DTITLE=Rie Tomosaka VS Eri Sakatomo - Live and Remix
DYEAR=1900
DGENRE=J-pop
TTITLE0=くしゃみ
TTITLE1=私がついてるじゃない？
TTITLE2=エスカレーション
TTITLE3=BLOWZ JOB
TTITLE4=ロマンティックはどこへ？
TTITLE5=どっちでも IN
TTITLE6=LAST SONG
TTITLE7=稲妻娘
TTITLE8=Escalation #1
TTITLE9=Docchidemo IN #1
EXTD=
EXTT0=
EXTT1=
EXTT2=
EXTT3=
EXTT4=
EXTT5=
EXTT6=
EXTT7=
EXTT8=
EXTT9=
PLAYORDER=
